<svg width="48" height="48" viewBox="0 0 48 48" fill="none" xmlns="http://www.w3.org/2000/svg">
<path d="M23.93 30.6461C27.5895 30.6461 30.5562 27.6794 30.5562 24.0198C30.5562 20.3602 27.5895 17.3936 23.93 17.3936C20.2704 17.3936 17.3037 20.3602 17.3037 24.0198C17.3037 27.6794 20.2704 30.6461 23.93 30.6461Z" fill="black"/>
<path d="M31.688 5.12207H16.313C10.433 5.12207 5.62549 9.93238 5.62549 15.8096V32.1877C5.62549 38.0686 10.4367 42.8752 16.313 42.8752H31.688C37.568 42.8752 42.3755 38.0649 42.3755 32.1877V15.8133C42.3755 9.93238 37.5642 5.12207 31.688 5.12207ZM23.9789 34.1321C21.9772 34.1323 20.0204 33.5388 18.356 32.4269C16.6916 31.3149 15.3943 29.7343 14.6282 27.8851C13.8621 26.0358 13.6616 24.0008 14.0521 22.0376C14.4426 20.0744 15.4064 18.271 16.8218 16.8556C18.2373 15.4402 20.0406 14.4763 22.0038 14.0859C23.9671 13.6954 26.002 13.8959 27.8513 14.662C29.7006 15.4281 31.2811 16.7254 32.3931 18.3898C33.5051 20.0542 34.0985 22.011 34.0983 24.0127C34.0981 26.6964 33.0318 29.2702 31.1341 31.1679C29.2364 33.0656 26.6627 34.1318 23.9789 34.1321ZM34.2605 16.1321C33.7866 16.1321 33.3233 15.9916 32.9293 15.7283C32.5353 15.465 32.2281 15.0908 32.0467 14.653C31.8653 14.2152 31.8178 13.7335 31.9102 13.2687C32.0026 12.8039 32.2307 12.3769 32.5658 12.0417C32.9008 11.7066 33.3277 11.4783 33.7924 11.3857C34.2572 11.2932 34.739 11.3405 35.1768 11.5217C35.6147 11.7029 35.989 12.0099 36.2524 12.4039C36.5159 12.7978 36.6566 13.261 36.6567 13.7349C36.6567 14.3704 36.4043 14.9799 35.9549 15.4293C35.5055 15.8787 34.896 16.1311 34.2605 16.1311V16.1321Z" fill="black"/>
</svg>
