<svg width="48" height="48" viewBox="0 0 48 48" fill="none" xmlns="http://www.w3.org/2000/svg">
<path d="M24 3C12.4031 3 3 12.4031 3 24C3 32.5969 8.175 39.9844 15.5719 43.2375C15.5156 41.775 15.5625 40.0125 15.9375 38.4187C16.3406 36.7125 18.6375 26.9719 18.6375 26.9719C18.6375 26.9719 17.9625 25.6313 17.9625 23.6531C17.9625 20.5406 19.7625 18.2156 22.0125 18.2156C23.925 18.2156 24.8438 19.65 24.8438 21.3656C24.8438 23.2875 23.6156 26.1562 22.9875 28.8187C22.4625 31.05 24.1031 32.8594 26.3063 32.8594C30.2812 32.8594 32.9625 27.75 32.9625 21.6937C32.9625 17.0906 29.8594 13.65 24.225 13.65C17.8594 13.65 13.8844 18.4031 13.8844 23.7094C13.8844 25.5375 14.4281 26.8312 15.2719 27.825C15.6562 28.2844 15.7125 28.4719 15.5719 28.9969C15.4688 29.3812 15.2437 30.3094 15.1406 30.6844C15 31.2187 14.5688 31.4062 14.0906 31.2094C11.1562 30.0094 9.7875 26.8031 9.7875 23.1844C9.7875 17.2219 14.8219 10.0688 24.7969 10.0688C32.8125 10.0688 38.0906 15.8719 38.0906 22.0969C38.0906 30.3375 33.5062 36.4875 26.7562 36.4875C24.4875 36.4875 22.3594 35.2594 21.6281 33.8719C21.6281 33.8719 20.4094 38.7094 20.1469 39.6469C19.7062 41.2687 18.8344 42.8812 18.0375 44.1469C19.9219 44.7 21.9187 45.0094 23.9906 45.0094C35.5875 45.0094 44.9906 35.6063 44.9906 24.0094C45 12.4031 35.5969 3 24 3Z" fill="black"/>
</svg>
