<svg width="48" height="48" viewBox="0 0 48 48" fill="none" xmlns="http://www.w3.org/2000/svg">
<path d="M40.6214 14.0887C39.3829 13.9744 37.4076 13.5825 35.6892 12.1941C34.7016 11.2887 33.8359 10.2588 33.1139 9.13031L33.0539 9.03656L32.9957 8.94281L32.9826 8.92313C32.9179 8.81813 32.856 8.71406 32.7951 8.61188C32.5495 8.19 32.3498 7.79812 32.2992 7.69969C32.1201 7.34156 31.9729 7.01438 31.8529 6.7275C31.821 6.64031 31.7901 6.55031 31.7592 6.45375C31.6177 5.9716 31.5482 5.4712 31.5529 4.96875L24.9604 5.00625L25.0392 31.0387C25.0392 32.4356 23.8964 34.7888 21.7945 35.8078C20.2739 36.5466 18.202 36.4819 17.0442 35.8753L17.0357 35.8706H17.0301C16.7401 35.715 16.4616 35.5389 16.1967 35.3438C15.8749 35.0999 15.5793 34.8235 15.3145 34.5188C14.9864 34.1438 14.3104 33.3403 14.0854 32.1094C13.9082 31.1409 14.1117 30.3769 14.211 29.9203C14.2907 29.5575 14.7595 27.5869 16.7039 26.3634C18.7382 25.0837 20.8204 25.6078 21.1607 25.6997C21.187 24.0253 21.2592 19.6256 21.2685 19.0988C20.2617 18.9291 16.956 18.5016 13.5426 20.4113C9.86292 22.4634 8.54198 25.8347 8.1876 26.7863C7.63819 28.2606 7.37721 29.8268 7.41885 31.3997C7.43518 32.9182 7.7521 34.4185 8.35133 35.8139C8.95055 37.2093 9.82021 38.4722 10.9101 39.5297C11.5175 40.1127 12.1764 40.6396 12.8789 41.1038C13.0401 41.2288 13.2092 41.345 13.386 41.4525C13.8158 41.7169 14.2748 41.9305 14.7539 42.0891C15.2601 42.3066 20.6376 44.5059 25.8895 41.3025C31.1939 38.0681 31.6598 32.1966 31.6926 31.6659V17.76C34.2856 19.7329 37.4826 20.7454 40.7385 20.625C40.7282 20.0053 40.6542 15.6488 40.6214 14.0887Z" fill="black"/>
</svg>
