<svg width="48" height="48" viewBox="0 0 48 48" fill="none" xmlns="http://www.w3.org/2000/svg">
<path d="M3 24C3 29.5695 5.21249 34.911 9.15076 38.8492C13.089 42.7875 18.4305 45 24 45C29.5695 45 34.911 42.7875 38.8492 38.8492C42.7875 34.911 45 29.5695 45 24C45 18.4305 42.7875 13.089 38.8492 9.15076C34.911 5.21249 29.5695 3 24 3C18.4305 3 13.089 5.21249 9.15076 9.15076C5.21249 13.089 3 18.4305 3 24Z" fill="black"/>
<path d="M11.2004 21.0078H9.04795C9.23695 23.8113 8.54395 25.9323 8.54395 25.9323L9.69895 28.0428C11.2319 27.3918 11.2004 21.0078 11.2004 21.0078ZM18.1724 21.0078H16.0199C16.0199 21.0078 15.9884 27.3918 17.5109 28.0428L18.6659 25.9323C18.6764 25.9428 17.9834 23.8113 18.1724 21.0078ZM12.5549 27.4338H11.2004C11.2004 29.0193 12.5339 29.1558 12.5339 29.1558H13.2164C14.5919 29.1558 14.6444 27.5808 14.6444 27.5808V18.2148H12.5549V27.4338ZM19.7789 22.9398H21.1754L20.1149 25.1238C20.1149 25.1238 19.4954 26.3523 20.4929 26.3943H22.8134L23.7374 24.7038H22.5719C22.4669 24.7038 22.3724 24.6198 22.3724 24.5043C22.3724 24.4728 22.3829 24.4413 22.3934 24.4203L24.1259 21.0183H22.1099L21.9944 21.2598H21.8579C21.7529 21.2598 21.6584 21.1758 21.6584 21.0603C21.6584 21.0288 21.6689 20.9973 21.6794 20.9763L23.1284 18.2148H21.1124L19.3904 21.6798C19.4114 21.6798 18.7919 22.8978 19.7789 22.9398ZM20.0939 27.0663C20.0939 27.0663 19.8314 27.0873 19.6634 26.9193L18.6239 28.9248C18.6239 28.9248 18.7919 29.1558 19.1489 29.1558H21.7319L22.8344 27.0663H20.0939Z" fill="white"/>
<path d="M27.8952 21.0078H29.2287V18.8658H24.4722V21.0078H25.8162V27.1293H23.8212L22.8237 29.1453H29.9112V27.1293H27.8952V21.0078ZM37.4187 22.5933H37.1772V21.2073C37.1772 19.9158 36.1272 18.8658 34.8357 18.8658H34.0272V18.2148H31.9692V18.8658H30.6777V20.9658H31.9692V22.5933H29.9112V24.6933H31.9692V29.1663H34.0272V24.7038H36.8517C37.1247 24.7038 37.3557 24.9243 37.3557 25.2078V27.4128H35.3922C35.3922 28.3893 36.1797 29.1768 37.1562 29.1768H37.6917C38.6682 29.1768 39.4557 28.3893 39.4557 27.4128V24.6408C39.4452 23.4963 38.5422 22.5933 37.4187 22.5933ZM34.0272 20.9553H34.7622C34.9407 20.9553 35.0772 21.1023 35.0772 21.2703V22.5828H34.0167V20.9553H34.0272Z" fill="white"/>
<path d="M39.4247 19.8945C39.4247 19.3275 38.9732 18.876 38.4062 18.876C37.8392 18.876 37.3877 19.3275 37.3877 19.8945V20.913H38.4062C38.9627 20.913 39.4247 20.451 39.4247 19.8945Z" fill="white"/>
</svg>
