<svg width="1840" height="229" viewBox="0 0 1840 229" fill="none" xmlns="http://www.w3.org/2000/svg">
<g clip-path="url(#clip0_1923_430)">
<circle cx="1807.42" cy="187.495" r="31.3951" fill="black"/>
<path d="M1688.9 221.904C1674.16 221.904 1661.35 219.141 1650.47 213.616C1639.75 208.09 1631.38 201.142 1625.35 192.77C1619.32 184.23 1615.47 175.356 1613.8 166.147L1645.95 157.607C1648.46 167.821 1653.48 175.774 1661.02 181.467C1668.55 187.16 1678.01 190.007 1689.4 190.007C1698.11 190.007 1705.14 187.83 1710.5 183.477C1716.02 179.123 1718.78 173.933 1718.78 167.905C1718.78 162.379 1716.77 157.607 1712.76 153.589C1708.9 149.403 1703.63 146.64 1696.93 145.3L1668.8 139.775C1653.9 136.928 1642.18 130.482 1633.64 120.435C1625.1 110.389 1620.83 98.1658 1620.83 83.7659C1620.83 73.7195 1623.68 64.5102 1629.37 56.1382C1635.23 47.5988 1642.93 40.9011 1652.48 36.0454C1662.19 31.1896 1672.49 28.7617 1683.37 28.7617C1697.27 28.7617 1709.07 31.1059 1718.78 35.7942C1728.5 40.4826 1736.03 46.4267 1741.39 53.6266C1746.91 60.6591 1750.6 68.1102 1752.44 75.9799L1720.54 86.0263C1717.03 76.9846 1712.25 70.5381 1706.23 66.687C1700.2 62.6684 1692.58 60.6591 1683.37 60.6591C1678.18 60.6591 1673.49 61.7475 1669.31 63.9242C1665.29 66.1009 1662.11 68.9474 1659.76 72.4637C1657.58 75.8125 1656.5 79.245 1656.5 82.7612C1656.5 88.2868 1658.34 93.1426 1662.02 97.3286C1665.71 101.347 1670.81 103.942 1677.34 105.115L1703.97 110.891C1720.21 114.407 1732.77 121.105 1741.64 130.984C1750.51 140.696 1754.95 152.333 1754.95 165.895C1754.95 175.607 1752.27 184.732 1746.91 193.272C1741.56 201.811 1733.85 208.76 1723.81 214.118C1713.93 219.309 1702.29 221.904 1688.9 221.904Z" fill="black"/>
<path d="M1485.71 31.7764H1519.87V188.752H1599.99V218.891H1485.71V31.7764Z" fill="black"/>
<path d="M1336.34 31.7764H1460.67V61.9157H1370.5V109.887H1455.64V140.027H1370.5V188.752H1460.67V218.891H1336.34V31.7764Z" fill="black"/>
<path d="M1149 32H1210.03C1229.62 32 1246.79 35.9348 1261.52 43.8046C1276.25 51.6742 1287.64 62.7253 1295.68 76.9577C1303.71 91.0227 1307.73 107.181 1307.73 125.432C1307.73 143.515 1303.71 159.673 1295.68 173.906C1287.64 188.138 1276.17 199.273 1261.27 207.31C1246.53 215.18 1229.46 219.115 1210.03 219.115H1149V32ZM1210.79 188.975C1223.34 188.975 1234.31 186.38 1243.69 181.189C1253.23 175.999 1260.52 168.631 1265.54 159.087C1270.73 149.376 1273.32 138.157 1273.32 125.432C1273.32 112.706 1270.73 101.571 1265.54 92.0274C1260.52 82.4833 1253.23 75.1159 1243.69 69.9253C1234.31 64.7346 1223.34 62.1393 1210.79 62.1393H1183.16V188.975H1210.79Z" fill="black"/>
<path d="M1022.1 221.904C1003.85 221.904 987.272 217.718 972.37 209.346C957.468 200.807 945.747 189.17 937.208 174.435C928.668 159.7 924.398 143.291 924.398 125.207C924.398 107.124 928.668 90.7147 937.208 75.9799C945.747 61.2452 957.468 49.6918 972.37 41.3198C987.272 32.9477 1003.85 28.7617 1022.1 28.7617C1040.35 28.7617 1056.93 32.9477 1071.83 41.3198C1086.73 49.6918 1098.45 61.2452 1106.99 75.9799C1115.7 90.7147 1120.05 107.124 1120.05 125.207C1120.05 143.291 1115.7 159.7 1106.99 174.435C1098.45 189.17 1086.73 200.807 1071.83 209.346C1056.93 217.718 1040.35 221.904 1022.1 221.904ZM958.556 125.207C958.556 137.598 961.319 148.816 966.845 158.863C972.37 168.909 979.905 176.779 989.449 182.472C999.161 187.998 1010.04 190.76 1022.1 190.76C1034.16 190.76 1044.96 187.998 1054.5 182.472C1064.21 176.779 1071.83 168.909 1077.36 158.863C1082.88 148.816 1085.64 137.598 1085.64 125.207C1085.64 112.817 1082.88 101.682 1077.36 91.803C1071.83 81.7566 1064.21 73.9706 1054.5 68.4451C1044.96 62.7521 1034.16 59.9056 1022.1 59.9056C1010.04 59.9056 999.161 62.7521 989.449 68.4451C979.905 73.9706 972.37 81.7566 966.845 91.803C961.319 101.682 958.556 112.817 958.556 125.207Z" fill="black"/>
<path d="M705.744 31.7764H738.395L800.682 116.166L861.463 31.7764H894.114V218.891H859.705V91.8038L801.938 168.659H797.92L739.901 89.2922V218.891H705.744V31.7764Z" fill="black"/>
<path d="M507.543 31.7764H521.357L629.356 186.742V31.7764H645.681V218.891H631.867L523.868 63.6738V218.891H507.543V31.7764Z" fill="black"/>
<path d="M386.018 221.904C369.107 221.904 353.535 217.802 339.302 209.597C325.237 201.225 314.019 189.672 305.647 174.937C297.442 160.202 293.34 143.626 293.34 125.207C293.34 106.789 297.442 90.2961 305.647 75.7287C314.019 60.994 325.237 49.5243 339.302 41.3198C353.535 32.9477 369.107 28.7617 386.018 28.7617C402.93 28.7617 418.418 32.9477 432.483 41.3198C446.715 49.5243 457.934 60.994 466.138 75.7287C474.51 90.2961 478.696 106.789 478.696 125.207C478.696 143.626 474.51 160.202 466.138 174.937C457.934 189.672 446.715 201.225 432.483 209.597C418.418 217.802 402.93 221.904 386.018 221.904ZM309.665 125.207C309.665 139.942 312.847 153.505 319.209 165.895C325.74 178.286 334.781 188.165 346.335 195.532C358.056 202.732 371.283 206.332 386.018 206.332C400.585 206.332 413.646 202.732 425.199 195.532C436.92 188.165 446.046 178.286 452.576 165.895C459.106 153.505 462.371 139.942 462.371 125.207C462.371 110.64 459.106 97.1611 452.576 84.7705C446.213 72.3799 437.171 62.501 425.45 55.1336C413.897 47.7662 400.753 44.0825 386.018 44.0825C371.283 44.0825 358.056 47.7662 346.335 55.1336C334.781 62.501 325.74 72.3799 319.209 84.7705C312.847 97.1611 309.665 110.64 309.665 125.207Z" fill="black"/>
<path d="M200.584 221.905C187.858 221.905 176.556 219.142 166.677 213.617C156.966 208.091 149.347 200.473 143.822 190.761C138.463 180.882 135.784 169.58 135.784 156.854V31.7764H152.11V157.357C152.11 167.068 154.119 175.691 158.138 183.226C162.156 190.594 167.849 196.37 175.217 200.556C182.584 204.742 191.04 206.835 200.584 206.835C209.961 206.835 218.333 204.742 225.7 200.556C233.067 196.37 238.76 190.594 242.779 183.226C246.797 175.691 248.807 167.068 248.807 157.357V31.7764H265.132V156.854C265.132 169.58 262.453 180.882 257.095 190.761C251.737 200.64 244.118 208.342 234.239 213.868C224.528 219.226 213.309 221.905 200.584 221.905Z" fill="black"/>
<path d="M20.5771 31.7764H36.9026V203.821H121.041V218.891H20.5771V31.7764Z" fill="black"/>
</g>
<defs>
<clipPath id="clip0_1923_430">
<rect width="1840" height="227.956" fill="white" transform="translate(0 0.25)"/>
</clipPath>
</defs>
</svg>
